<mxfile host="app.diagrams.net" modified="2020-08-27T09:52:09.262Z" agent="5.0 (Macintosh; Intel Mac OS X 10_12_6) AppleWebKit/537.36 (KHTML, like Gecko) Chrome/84.0.4147.105 Safari/537.36" etag="kYOc4RK8Yzqi_6et51nc" version="13.6.5" type="github">
  <diagram name="Page-1" id="74e2e168-ea6b-b213-b513-2b3c1d86103e">
    <mxGraphModel dx="918" dy="542" grid="1" gridSize="10" guides="1" tooltips="1" connect="1" arrows="1" fold="1" page="1" pageScale="1" pageWidth="1100" pageHeight="850" background="#ffffff" math="0" shadow="0">
      <root>
        <mxCell id="0" />
        <mxCell id="1" parent="0" />
        <mxCell id="77e6c97f196da883-1" value="Pool" style="swimlane;html=1;childLayout=stackLayout;startSize=20;rounded=0;shadow=0;labelBackgroundColor=none;strokeWidth=1;fontFamily=Verdana;fontSize=8;align=center;" parent="1" vertex="1">
          <mxGeometry x="70" y="40" width="480" height="500" as="geometry" />
        </mxCell>
        <mxCell id="77e6c97f196da883-2" value="business" style="swimlane;html=1;startSize=20;" parent="77e6c97f196da883-1" vertex="1">
          <mxGeometry y="20" width="160" height="480" as="geometry" />
        </mxCell>
        <mxCell id="77e6c97f196da883-8" value="嵌入慧呼软电话条" style="rounded=1;whiteSpace=wrap;html=1;shadow=0;labelBackgroundColor=none;strokeWidth=1;fontFamily=Verdana;fontSize=8;align=center;" parent="77e6c97f196da883-2" vertex="1">
          <mxGeometry x="20" y="65" width="100" height="60" as="geometry" />
        </mxCell>
        <mxCell id="4DiJoFjwtLvUI13sV5YY-1" value="呼叫事件" style="rounded=1;whiteSpace=wrap;html=1;shadow=0;labelBackgroundColor=none;strokeWidth=1;fontFamily=Verdana;fontSize=8;align=center;" parent="77e6c97f196da883-2" vertex="1">
          <mxGeometry x="20" y="190" width="100" height="60" as="geometry" />
        </mxCell>
        <mxCell id="4DiJoFjwtLvUI13sV5YY-17" value="通话记录" style="whiteSpace=wrap;html=1;rounded=1;shadow=0;fontFamily=Verdana;fontSize=8;strokeWidth=1;" parent="77e6c97f196da883-2" vertex="1">
          <mxGeometry x="20" y="350" width="120" height="65" as="geometry" />
        </mxCell>
        <mxCell id="77e6c97f196da883-26" style="edgeStyle=orthogonalEdgeStyle;rounded=1;html=1;labelBackgroundColor=none;startArrow=none;startFill=0;startSize=5;endArrow=classicThin;endFill=1;endSize=5;jettySize=auto;orthogonalLoop=1;strokeWidth=1;fontFamily=Verdana;fontSize=8" parent="77e6c97f196da883-1" source="77e6c97f196da883-8" target="77e6c97f196da883-11" edge="1">
          <mxGeometry relative="1" as="geometry" />
        </mxCell>
        <mxCell id="77e6c97f196da883-3" value="phone" style="swimlane;html=1;startSize=20;" parent="77e6c97f196da883-1" vertex="1">
          <mxGeometry x="160" y="20" width="160" height="480" as="geometry" />
        </mxCell>
        <mxCell id="4DiJoFjwtLvUI13sV5YY-15" value="呼叫通话记录回调MQ" style="whiteSpace=wrap;html=1;rounded=1;shadow=0;fontFamily=Verdana;fontSize=8;strokeWidth=1;" parent="77e6c97f196da883-3" vertex="1">
          <mxGeometry x="20" y="350" width="120" height="65" as="geometry" />
        </mxCell>
        <mxCell id="4DiJoFjwtLvUI13sV5YY-10" value="打通电话后插入callRequest" style="rounded=1;whiteSpace=wrap;html=1;shadow=0;labelBackgroundColor=none;strokeWidth=1;fontFamily=Verdana;fontSize=8;align=center;" parent="77e6c97f196da883-3" vertex="1">
          <mxGeometry x="30" y="270" width="100" height="60" as="geometry" />
        </mxCell>
        <mxCell id="77e6c97f196da883-4" value="Call P&lt;span style=&quot;font-family: &amp;#34;microsoft yahei&amp;#34; , &amp;#34;arial&amp;#34; , &amp;#34;helvetica&amp;#34; , sans-serif ; font-size: 14px ; font-weight: 400 ; text-align: left ; background-color: rgb(255 , 255 , 255)&quot;&gt;rovider&lt;/span&gt;" style="swimlane;html=1;startSize=20;" parent="77e6c97f196da883-1" vertex="1">
          <mxGeometry x="320" y="20" width="160" height="480" as="geometry" />
        </mxCell>
        <mxCell id="77e6c97f196da883-11" value="发起呼叫" style="rounded=1;whiteSpace=wrap;html=1;shadow=0;labelBackgroundColor=none;strokeWidth=1;fontFamily=Verdana;fontSize=8;align=center;" parent="77e6c97f196da883-4" vertex="1">
          <mxGeometry x="30" y="65" width="100" height="60" as="geometry" />
        </mxCell>
        <mxCell id="4DiJoFjwtLvUI13sV5YY-5" value="" style="edgeStyle=none;rounded=0;orthogonalLoop=1;jettySize=auto;html=1;" parent="77e6c97f196da883-4" source="77e6c97f196da883-11" target="4DiJoFjwtLvUI13sV5YY-4" edge="1">
          <mxGeometry relative="1" as="geometry" />
        </mxCell>
        <mxCell id="4DiJoFjwtLvUI13sV5YY-4" value="呼叫" style="whiteSpace=wrap;html=1;rounded=1;shadow=0;fontFamily=Verdana;fontSize=8;strokeWidth=1;" parent="77e6c97f196da883-4" vertex="1">
          <mxGeometry x="20" y="187.5" width="120" height="65" as="geometry" />
        </mxCell>
        <mxCell id="4DiJoFjwtLvUI13sV5YY-11" value="" style="edgeStyle=none;rounded=0;orthogonalLoop=1;jettySize=auto;html=1;startSize=20;" parent="77e6c97f196da883-1" source="4DiJoFjwtLvUI13sV5YY-1" target="4DiJoFjwtLvUI13sV5YY-10" edge="1">
          <mxGeometry relative="1" as="geometry">
            <Array as="points">
              <mxPoint x="68" y="320" />
            </Array>
          </mxGeometry>
        </mxCell>
        <mxCell id="4DiJoFjwtLvUI13sV5YY-18" value="" style="edgeStyle=none;rounded=0;orthogonalLoop=1;jettySize=auto;html=1;startSize=20;" parent="77e6c97f196da883-1" source="4DiJoFjwtLvUI13sV5YY-15" target="4DiJoFjwtLvUI13sV5YY-17" edge="1">
          <mxGeometry relative="1" as="geometry" />
        </mxCell>
        <mxCell id="4DiJoFjwtLvUI13sV5YY-6" style="edgeStyle=none;rounded=0;orthogonalLoop=1;jettySize=auto;html=1;" parent="77e6c97f196da883-1" source="4DiJoFjwtLvUI13sV5YY-4" target="4DiJoFjwtLvUI13sV5YY-1" edge="1">
          <mxGeometry relative="1" as="geometry" />
        </mxCell>
        <mxCell id="4DiJoFjwtLvUI13sV5YY-13" value="" style="edgeStyle=none;rounded=0;orthogonalLoop=1;jettySize=auto;html=1;startSize=20;" parent="1" source="4DiJoFjwtLvUI13sV5YY-4" target="4DiJoFjwtLvUI13sV5YY-12" edge="1">
          <mxGeometry relative="1" as="geometry" />
        </mxCell>
        <mxCell id="4DiJoFjwtLvUI13sV5YY-16" value="" style="edgeStyle=none;rounded=0;orthogonalLoop=1;jettySize=auto;html=1;startSize=20;" parent="1" source="4DiJoFjwtLvUI13sV5YY-12" target="4DiJoFjwtLvUI13sV5YY-15" edge="1">
          <mxGeometry relative="1" as="geometry" />
        </mxCell>
        <mxCell id="4DiJoFjwtLvUI13sV5YY-12" value="呼叫完成" style="whiteSpace=wrap;html=1;rounded=1;shadow=0;fontFamily=Verdana;fontSize=8;strokeWidth=1;" parent="1" vertex="1">
          <mxGeometry x="410" y="410" width="120" height="65" as="geometry" />
        </mxCell>
      </root>
    </mxGraphModel>
  </diagram>
</mxfile>
